<?xml version="1.0" encoding="UTF-8"?>
<svg width="24px" height="24px" viewBox="0 0 24 24" version="1.1" fill-rule="nonzero" fill="#774D4D" xmlns="http://www.w3.org/2000/svg" xmlns:xlink="http://www.w3.org/1999/xlink">
    <g id="Desktop" transform="translate(-659.000000, -832.000000)" >
        <path d="M670.8125,839.339844 C669.406243,839.339844 668.210942,839.832026 667.226562,840.816406 C666.242183,841.800786 665.75,842.996087 665.75,844.402344 C665.75,846.371104 666.593742,847.830073 668.28125,848.779297 L669.125,849.306641 L669.125,854 L672.5,854 L672.5,849.306641 L673.34375,848.779297 C674.117191,848.35742 674.73242,847.759769 675.189453,846.986328 C675.646487,846.212887 675.875,845.351567 675.875,844.402344 C675.875,842.996087 675.382817,841.800786 674.398438,840.816406 C673.414058,839.832026 672.218757,839.339844 670.8125,839.339844 Z M671.919922,832.0625 L671.919922,835.4375 L669.705078,835.4375 L669.705078,832.0625 L671.919922,832.0625 Z M678.722656,834.910156 L680.304688,836.492188 L678.300781,838.496094 L676.71875,836.914062 L678.722656,834.910156 Z M662.902344,834.910156 L664.90625,836.914062 L663.324219,838.496094 L661.320312,836.492188 L662.902344,834.910156 Z M670.8125,837.652344 C672.640634,837.652344 674.22265,838.320306 675.558594,839.65625 C676.894538,840.992194 677.5625,842.57421 677.5625,844.402344 C677.5625,847.003919 676.437511,848.955072 674.1875,850.255859 L674.1875,855.6875 L667.4375,855.6875 L667.4375,850.255859 C666.417964,849.6582 665.600589,848.840826 664.985352,847.803711 C664.370114,846.766596 664.0625,845.632819 664.0625,844.402344 C664.0625,842.57421 664.730462,840.992194 666.066406,839.65625 C667.40235,838.320306 668.984366,837.652344 670.8125,837.652344 Z M682.625,843.294922 L682.625,845.509766 L679.25,845.509766 L679.25,843.294922 L682.625,843.294922 Z M662.375,843.294922 L662.375,845.509766 L659,845.509766 L659,843.294922 L662.375,843.294922 Z" id="ion-android-bulb---Ionicons"></path>
    </g>
</svg>
