<?xml version="1.0" encoding="utf-8"?>
<!-- Generator: Adobe Illustrator 16.0.0, SVG Export Plug-In . SVG Version: 6.00 Build 0)  -->
<!DOCTYPE svg PUBLIC "-//W3C//DTD SVG 1.1//EN" "http://www.w3.org/Graphics/SVG/1.1/DTD/svg11.dtd">
<svg version="1.1" xmlns="http://www.w3.org/2000/svg" xmlns:xlink="http://www.w3.org/1999/xlink" x="0px" y="0px"
	 width="294.035px" height="275.736px" viewBox="0 0 294.035 275.736" enable-background="new 0 0 294.035 275.736"
	 xml:space="preserve">
<g id="Layer_1">
</g>
<g id="Isolation_Mode">
	<g>
		<polygon points="142.882,250.545 294.035,250.545 294.035,214.753 178.674,214.753 		"/>
		<polygon points="127.005,107.376 91.212,107.376 91.212,190.892 94.295,190.892 127.005,158.18 		"/>
		<polygon points="162.797,141.583 173.803,152.588 178.895,157.681 196.812,139.763 198.589,137.986 198.589,107.376 
			162.797,107.376 		"/>
		<polygon points="180.692,0 67.351,59.654 67.351,83.515 294.035,83.515 294.035,59.654 		"/>
		<rect x="234.382" y="107.376" width="35.792" height="83.516"/>
	</g>
	<g id="Layer_3">
		<g>
			<path d="M159.979,166.597l-12.825-12.827l-57.661,57.665l12.826,12.822L159.979,166.597z M198.545,153.771l-96.226,96.227
				L64.3,212.072l-12.825,12.824l50.843,50.84l109.14-109.139L198.545,153.771z M0,224.896l50.84,50.84l12.825-12.826
				l-50.751-50.838L0,224.896z"/>
		</g>
	</g>
</g>
</svg>
