<?xml version="1.0" encoding="utf-8"?>
<!-- Generator: Adobe Illustrator 20.1.0, SVG Export Plug-In . SVG Version: 6.00 Build 0)  -->
<svg version="1.1" xmlns="http://www.w3.org/2000/svg" xmlns:xlink="http://www.w3.org/1999/xlink" x="0px" y="0px" width="285.1px"
	 height="266.7px" viewBox="0 0 285.1 266.7" style="enable-background:new 0 0 285.1 266.7;" xml:space="preserve">
<style type="text/css">
	.st0{display:none;}
	.st1{display:inline;}
</style>
<g id="Layer_2" class="st0">
	<g id="Isolation_Mode_1_" class="st1">
		<g>
			<polygon points="136.6,242.7 280,242.7 280,208.8 170.6,208.8 			"/>
			<polygon points="121.5,106.9 87.6,106.9 87.6,186.1 90.5,186.1 121.5,155.1 			"/>
			<polygon points="155.5,139.3 165.9,149.8 170.8,154.6 187.8,137.6 189.5,135.9 189.5,106.9 155.5,106.9 			"/>
			<polygon points="172.5,5 64.9,61.6 64.9,84.2 280,84.2 280,61.6 			"/>
			<rect x="223.4" y="106.9" width="34" height="79.2"/>
		</g>
		<g id="Layer_3">
			<g>
				<path d="M152.8,163.1l-12.2-12.2l-54.7,54.7l12.2,12.2L152.8,163.1z M189.4,150.9l-91.3,91.3l-36.1-36l-12.2,12.2l48.2,48.2
					l103.6-103.6L189.4,150.9z M1,218.4l48.2,48.2l12.2-12.2l-48.2-48.2L1,218.4z"/>
			</g>
		</g>
	</g>
</g>
<g id="Layer_1">
	<g id="Layer_1_1_">
	</g>
	<g id="Isolation_Mode">
		<g>
			<polygon points="180.3,114.7 146.4,114.7 146.4,146.8 156.6,156.9 164,164.3 156.6,171.7 146.4,181.9 146.4,193.9 180.3,193.9 
							"/>
			<polygon points="112.5,114.7 78.6,114.7 78.6,193.9 81.1,193.9 112.5,162.4 			"/>
			<polygon points="56,218.9 58.4,216.5 56,216.5 			"/>
			<polygon points="163.3,13 56,69.5 56,92.1 270.7,92.1 270.7,69.5 			"/>
			<rect x="214.2" y="114.7" width="33.9" height="79.1"/>
			<polygon points="77.9,250.4 270.7,250.4 270.7,216.5 111.8,216.5 			"/>
		</g>
	</g>
	<g id="Layer_4">
		<polygon points="137.2,152.4 47.9,241.8 12.6,206.6 0.7,218.5 47.9,265.7 149.2,164.3 		"/>
	</g>
</g>
</svg>
