<?xml version="1.0" encoding="utf-8"?>
<!-- Generator: Adobe Illustrator 16.0.0, SVG Export Plug-In . SVG Version: 6.00 Build 0)  -->
<!DOCTYPE svg PUBLIC "-//W3C//DTD SVG 1.1//EN" "http://www.w3.org/Graphics/SVG/1.1/DTD/svg11.dtd">
<svg version="1.1" xmlns="http://www.w3.org/2000/svg" xmlns:xlink="http://www.w3.org/1999/xlink" x="0px" y="0px"
	 width="285.052px" height="266.709px" viewBox="0 0 285.052 266.709" enable-background="new 0 0 285.052 266.709"
	 xml:space="preserve">
<g id="Layer_1">
</g>
<g id="Isolation_Mode">
	<g>
		<polygon points="189.604,107.376 153.814,107.376 153.814,141.225 164.564,151.902 172.396,159.68 164.591,167.485 
			153.814,178.263 153.814,190.891 189.604,190.891 		"/>
		<polygon points="118.021,107.376 82.229,107.376 82.229,190.891 84.84,190.891 118.021,157.71 		"/>
		<polygon points="58.368,217.363 60.977,214.754 58.368,214.754 		"/>
		<polygon points="171.708,0 58.368,59.654 58.368,83.515 285.052,83.515 285.052,59.654 		"/>
		<rect x="225.399" y="107.376" width="35.791" height="83.514"/>
		<polygon points="81.531,250.545 285.052,250.545 285.052,214.754 117.323,214.754 		"/>
	</g>
</g>
<g id="Layer_4">
	<polygon points="144.167,147.148 49.837,241.477 12.573,204.299 0,216.873 49.837,266.709 156.827,159.72 	"/>
</g>
</svg>
