<?xml version="1.0" encoding="UTF-8"?>
<svg width="28px" height="26px" viewBox="0 0 28 26" version="1.1" fill-rule="nonzero" fill="#000000" xmlns="http://www.w3.org/2000/svg" xmlns:xlink="http://www.w3.org/1999/xlink">
    <g id="house" transform="translate(-512.000000, -911.000000)">
        <path d="M13,0 C14.7206744,0 16.9336728,0.605769639 16.9336728,0.605769639 C17.4400049,0.777955526 17.5231386,1.22949632 17.0997258,1.58478183 L16.0830183,2.43790073 C16.0830183,2.43790073 14.0702511,2 13,2 C6.92486775,2 2,6.92486775 2,13 C2,19.0751322 6.92486775,24 13,24 C19.0751322,24 24,19.0751322 24,13 C24,11.7260755 23.3851361,9.36476924 23.3851361,9.36476924 L24.2334025,8.65298922 C24.6620424,8.29331762 25.1273677,8.43168441 25.2774175,8.95811158 C25.2774175,8.95811158 26,11.2300901 26,13 C26,20.1797017 20.1797017,26 13,26 C5.82029825,26 0,20.1797017 0,13 C0,5.82029825 5.82029825,0 13,0 Z M27.7572667,2.54575183 C27.7572667,2.69921183 27.6958827,2.85267184 27.5853915,2.96316304 L22.3063673,8.24218719 C22.1958761,8.3526784 22.0424161,8.4140624 21.8889561,8.4140624 C21.7354961,8.4140624 21.5820361,8.3526784 21.4715449,8.24218719 L18.4146216,5.18526391 C18.3041304,5.0747727 18.2427464,4.9213127 18.2427464,4.76785269 C18.2427464,4.61439269 18.3041304,4.46093269 18.4146216,4.35044148 L19.249444,3.51561906 C19.3599353,3.40512786 19.5133953,3.34374385 19.6668553,3.34374385 C19.8203153,3.34374385 19.9737753,3.40512786 20.0842665,3.51561906 L21.8889561,5.32644711 L25.9157466,1.29351819 C26.0262378,1.18302699 26.1796978,1.12164299 26.3331579,1.12164299 C26.4866179,1.12164299 26.6400779,1.18302699 26.7505691,1.29351819 L27.5853915,2.12834062 C27.6958827,2.23883182 27.7572667,2.39229183 27.7572667,2.54575183 Z M8.75,7 L10.838,7 L10.838,11.734 L15.608,11.734 L15.608,7 L17.696,7 L17.696,18.772 L15.608,18.772 L15.608,13.552 L10.838,13.552 L10.838,18.772 L8.75,18.772 L8.75,7 Z" id="Combined-Shape"></path>
    </g>
</svg>
