<?xml version="1.0" encoding="UTF-8"?>
<svg width="22px" height="26px" viewBox="0 0 22 26" version="1.1" xmlns="http://www.w3.org/2000/svg" xmlns:xlink="http://www.w3.org/1999/xlink">
    <!-- Generator: Sketch 43.2 (39069) - http://www.bohemiancoding.com/sketch -->
    <title>icon-bill</title>
    <desc>Created with Sketch.</desc>
    <defs></defs>
    <g id="Page-1" stroke="none" stroke-width="1" fill="none" fill-rule="evenodd">
        <g id="Desktop" transform="translate(-247.000000, -459.000000)" fill="#B9B9B9">
            <g id="Group-3" transform="translate(247.000000, 458.000000)">
                <path d="M20.4799351,6.87274863 C20.9961188,7.38893228 21.428597,8.42129959 21.428597,9.16069779 L21.428597,25.2321455 C21.428597,25.9715437 20.8287079,26.5714328 20.0893097,26.5714328 L1.33928731,26.5714328 C0.599889108,26.5714328 0,25.9715437 0,25.2321455 L0,2.91069034 C0,2.17129213 0.599889108,1.57140303 1.33928731,1.57140303 L13.8393022,1.57140303 C14.5787004,1.57140303 15.6110677,2.00388122 16.1272514,2.52006487 L20.4799351,6.87274863 Z M14.2857313,3.46872672 L14.2857313,8.71426868 L19.5312733,8.71426868 C19.4475678,8.47710322 19.3220096,8.23993776 19.2243533,8.1422814 L14.8577186,3.77564673 C14.7600622,3.67799036 14.5228968,3.55243217 14.2857313,3.46872672 Z M19.6428806,24.7857164 L19.6428806,10.4999851 L13.8393022,10.4999851 C13.099904,10.4999851 12.5000149,9.90009599 12.5000149,9.16069779 L12.5000149,3.35711944 L1.78571641,3.35711944 L1.78571641,24.7857164 L19.6428806,24.7857164 Z M5.35714924,12.7321306 C5.35714924,12.4810142 5.55246198,12.2857015 5.80357835,12.2857015 L15.6250186,12.2857015 C15.876135,12.2857015 16.0714477,12.4810142 16.0714477,12.7321306 L16.0714477,13.6249888 C16.0714477,13.8761052 15.876135,14.0714179 15.6250186,14.0714179 L5.80357835,14.0714179 C5.55246198,14.0714179 5.35714924,13.8761052 5.35714924,13.6249888 L5.35714924,12.7321306 Z M15.6250186,15.8571343 C15.876135,15.8571343 16.0714477,16.0524471 16.0714477,16.3035634 L16.0714477,17.1964217 C16.0714477,17.447538 15.876135,17.6428508 15.6250186,17.6428508 L5.80357835,17.6428508 C5.55246198,17.6428508 5.35714924,17.447538 5.35714924,17.1964217 L5.35714924,16.3035634 C5.35714924,16.0524471 5.55246198,15.8571343 5.80357835,15.8571343 L15.6250186,15.8571343 Z M15.6250186,19.4285672 C15.876135,19.4285672 16.0714477,19.6238799 16.0714477,19.8749963 L16.0714477,20.7678545 C16.0714477,21.0189709 15.876135,21.2142836 15.6250186,21.2142836 L5.80357835,21.2142836 C5.55246198,21.2142836 5.35714924,21.0189709 5.35714924,20.7678545 L5.35714924,19.8749963 C5.35714924,19.6238799 5.55246198,19.4285672 5.80357835,19.4285672 L15.6250186,19.4285672 Z" id="icon-bill"></path>
            </g>
        </g>
    </g>
</svg>
